<svg xmlns="http://www.w3.org/2000/svg" viewBox="0 0 381.01 149.91"><defs><style>.cls-1{fill:#454545;}.cls-2{fill:#e05b5b;}</style></defs><g id="Layer_2" data-name="Layer 2"><g id="Layer_1-2" data-name="Layer 1"><path class="cls-1" d="M151.51,97V35.78H163V97Z"/><path class="cls-1" d="M206.49,97V74.42c0-6.55-3.59-11.54-10.41-11.54-6.56,0-11,5.51-11,12.07V97H174.49V53.79H184l.7,5.86c4.37-4.29,8.74-6.47,14.16-6.47,10.14,0,18.27,7.61,18.27,21.16V97Z"/><path class="cls-1" d="M241.26,41.73V54h11.89v9.18h-12V81.77c0,4.11,2.28,6.12,5.6,6.12a12.32,12.32,0,0,0,5.16-1.31l3,9.09a24,24,0,0,1-8.83,1.84c-9.36.35-15.48-5-15.48-15.74V63.15h-8V54h8V42.86Z"/><path class="cls-1" d="M273.76,53.88V76.44c0,6.55,3.59,11.54,10.4,11.54,6.56,0,11-5.51,11-12.07v-22h10.58V97.07h-9.53l-.7-5.86c-4.46,4.37-8.57,6.47-14.6,6.47-10.32,0-17.84-7.78-17.84-21.16V53.88Z"/><path class="cls-1" d="M316.93,53.7V97H327.6V53.7Z"/><path class="cls-1" d="M381,75.47c0,12.42-8.48,22.47-22.47,22.47s-22.38-10-22.38-22.47S344.73,53,358.46,53,381,63.15,381,75.47Zm-34.18,0c0,6.56,3.93,12.68,11.71,12.68S370.26,82,370.26,75.47s-4.55-12.76-11.72-12.76C350.85,62.71,346.83,69,346.83,75.47Z"/><path class="cls-1" d="M154.14,109.68v2.53h5.63v2.18h-5.63V117h6.43v2.18h-9.06V107.5h8.88v2.18Z"/><path class="cls-1" d="M169.09,116.89l-.91,2.26h-2.71l5.06-11.65h2.71l5,11.65H175.4l-.91-2.26Zm2.72-6.64L170,114.77h3.68Z"/><path class="cls-1" d="M192.22,108.65l-1,2.18a8.13,8.13,0,0,0-3.63-1.2c-.88,0-1.48.32-1.48,1,0,2.15,6.21,1,6.19,5.14,0,2.28-2,3.51-4.56,3.51a8.22,8.22,0,0,1-5.14-1.84l1-2.15a7,7,0,0,0,4.13,1.75c1.08,0,1.73-.4,1.73-1.12,0-2.2-6.21-.91-6.21-5,0-2.11,1.81-3.45,4.51-3.45A8.32,8.32,0,0,1,192.22,108.65Z"/><path class="cls-1" d="M203.91,119.15h-2.63v-3.69l-4.32-8h2.65l3,5.23,2.91-5.23h2.65l-4.24,7.89Z"/><path class="cls-1" d="M221.72,119.15V107.5h2.63v11.65Z"/><path class="cls-1" d="M239.25,119.15l-5.64-7.47v7.47h-2.52V107.5h2.4l5.66,7.49V107.5h2.5v11.65Z"/><path class="cls-1" d="M256.53,119.15l-5.64-7.47v7.47h-2.51V107.5h2.39l5.66,7.49V107.5h2.5v11.65Z"/><path class="cls-1" d="M277.34,113.33a6.27,6.27,0,1,1-6.26-5.91A6,6,0,0,1,277.34,113.33Zm-9.82,0a3.63,3.63,0,0,0,3.6,3.64,3.63,3.63,0,1,0-3.6-3.64Z"/><path class="cls-1" d="M286.37,119.15l-4.58-11.65h2.83l3.18,8.79L291,107.5h2.72l-4.63,11.65Z"/><path class="cls-1" d="M300.57,116.89l-.92,2.26h-2.71L302,107.5h2.71l5,11.65h-2.81l-.92-2.26Zm2.71-6.64-1.85,4.52h3.68Z"/><path class="cls-1" d="M318.88,109.73v9.42h-2.63v-9.42h-3.54V107.5h9.73v2.23Z"/><path class="cls-1" d="M328,119.15V107.5h2.63v11.65Z"/><path class="cls-1" d="M349.08,113.33a6.27,6.27,0,1,1-6.26-5.91A6,6,0,0,1,349.08,113.33Zm-9.82,0a3.62,3.62,0,0,0,3.59,3.64,3.63,3.63,0,1,0-3.59-3.64Z"/><path class="cls-1" d="M363.13,119.15l-5.64-7.47v7.47H355V107.5h2.39L363,115V107.5h2.5v11.65Z"/><path class="cls-1" d="M381,108.65l-1,2.18a8.13,8.13,0,0,0-3.63-1.2c-.88,0-1.48.32-1.48,1,0,2.15,6.21,1,6.19,5.14,0,2.28-2,3.51-4.56,3.51a8.19,8.19,0,0,1-5.14-1.84l1.05-2.15a6.92,6.92,0,0,0,4.13,1.75c1.08,0,1.73-.4,1.73-1.12,0-2.2-6.21-.91-6.21-5,0-2.11,1.81-3.45,4.51-3.45A8.32,8.32,0,0,1,381,108.65Z"/><rect class="cls-1" x="316.75" y="36.37" width="11.02" height="11.02"/><path class="cls-2" d="M124.21,28.58,80.32,3.24A24.38,24.38,0,0,0,56,3.24L12.14,28.58A24.36,24.36,0,0,0,0,49.61V100.3a24.36,24.36,0,0,0,12.14,21L56,146.67a24.38,24.38,0,0,0,24.29,0l43.89-25.34a24.36,24.36,0,0,0,12.14-21V49.61A24.36,24.36,0,0,0,124.21,28.58ZM15.91,114.8a16.8,16.8,0,0,1-8.37-14.5V49.61a16.81,16.81,0,0,1,8.37-14.5L59.8,9.77A16.8,16.8,0,0,1,64.41,8v5.26h0V118.65h0V126l-9.28-5.35v-2h-.07v-98L21.18,40.2a13.24,13.24,0,0,0-6.6,11.44V98.27a13.24,13.24,0,0,0,6.6,11.44L61.57,133a13.08,13.08,0,0,0,2.84,1.2v7.71a16.8,16.8,0,0,1-4.61-1.8ZM47.59,43,34,50.82a7.6,7.6,0,0,0-3.79,6.57V92.52A7.59,7.59,0,0,0,34,99.09L47.59,107v9.29L25,103.18a5.68,5.68,0,0,1-2.83-4.91V51.64A5.68,5.68,0,0,1,25,46.73L47.59,33.66Zm0,55.29L37.7,92.52l0-35.17,9.87-5.69Zm81.22,2.06a16.8,16.8,0,0,1-8.37,14.5L76.55,140.14a16.86,16.86,0,0,1-4.6,1.8v-6.12h-.07v-103H72V24l9.22,5.32v3.51h.07V129.3l33.93-19.59a13.24,13.24,0,0,0,6.6-11.44V51.64a13.24,13.24,0,0,0-6.6-11.44L74.78,16.88A13.22,13.22,0,0,0,72,15.68V8a16.86,16.86,0,0,1,4.6,1.8l43.89,25.34a16.81,16.81,0,0,1,8.37,14.5ZM88.71,107l13.69-7.91a7.59,7.59,0,0,0,3.79-6.57V57.39a7.6,7.6,0,0,0-3.79-6.57l-13.69-7.9V33.63l22.69,13.1a5.68,5.68,0,0,1,2.83,4.91V98.27a5.68,5.68,0,0,1-2.83,4.91l-22.69,13.1Zm0-55.36,9.94,5.75V92.52a.05.05,0,0,1,0,0l-9.92,5.72Z"/></g></g></svg>